<?xml version="1.0" standalone="no"?>
<!DOCTYPE svg PUBLIC "-//W3C//DTD SVG 1.1//EN" "http://www.w3.org/Graphics/SVG/1.1/DTD/svg11.dtd">
<svg width="100%" height="100%" viewBox="0 0 21 20" version="1.1" xmlns="http://www.w3.org/2000/svg" xmlns:xlink="http://www.w3.org/1999/xlink" xml:space="preserve" style="fill-rule:evenodd;clip-rule:evenodd;stroke-linejoin:round;stroke-miterlimit:1.41421;">
    <g transform="matrix(1,0,0,1,-1580.29,-1437)">
        <path id="Shape 1" d="M1582.28,1437L1599,1437C1600.1,1437 1601,1437.93 1601,1439.08L1601,1454.92C1601,1456.07 1600.1,1457 1599,1457L1582.28,1457C1581.18,1457 1580.29,1456.07 1580.29,1454.92L1580.29,1439.08C1580.29,1437.93 1581.18,1437 1582.28,1437ZM1587.37,1454.3L1588.26,1454.3L1588.26,1452.39C1588.26,1451.65 1587.73,1451.41 1587.18,1451.41C1586.68,1451.41 1586.31,1451.6 1586.06,1451.94C1585.92,1451.62 1585.65,1451.41 1585.13,1451.41C1584.6,1451.41 1584.18,1451.65 1584.02,1451.89L1584.01,1451.89L1584.01,1451.48L1583.15,1451.48L1583.15,1454.3L1584.04,1454.3L1584.04,1452.77C1584.04,1452.33 1584.34,1452.12 1584.72,1452.12C1584.97,1452.12 1585.26,1452.23 1585.26,1452.6L1585.26,1454.3L1586.15,1454.3L1586.15,1452.77C1586.15,1452.33 1586.45,1452.12 1586.82,1452.12C1587.08,1452.12 1587.37,1452.23 1587.37,1452.6L1587.37,1454.3ZM1595.17,1452.52C1595.01,1451.59 1594.19,1451.37 1593.51,1451.37C1592.44,1451.37 1591.72,1451.82 1591.72,1452.89C1591.72,1453.95 1592.41,1454.4 1593.43,1454.4C1594.32,1454.4 1595.01,1454.17 1595.17,1453.18L1594.25,1453.18C1594.2,1453.53 1593.91,1453.75 1593.51,1453.75C1592.96,1453.75 1592.64,1453.44 1592.64,1452.89C1592.64,1452.34 1592.96,1452.03 1593.51,1452.03C1593.87,1452.03 1594.14,1452.15 1594.25,1452.52L1595.17,1452.52ZM1590.76,1454.3L1591.62,1454.3L1591.62,1451.48L1590.73,1451.48L1590.73,1452.89C1590.73,1453.41 1590.46,1453.68 1589.98,1453.68C1589.57,1453.68 1589.37,1453.49 1589.37,1453.11L1589.37,1451.48L1588.48,1451.48L1588.48,1453.39C1588.48,1454.21 1589.18,1454.4 1589.64,1454.4C1590.17,1454.4 1590.59,1454.15 1590.75,1453.92L1590.76,1453.92L1590.76,1454.3ZM1595.21,1454.3L1596.1,1454.3L1596.1,1452.93C1596.1,1452.33 1596.45,1452.12 1596.87,1452.12C1597.27,1452.12 1597.46,1452.32 1597.46,1452.7L1597.46,1454.3L1598.35,1454.3L1598.35,1452.42C1598.35,1451.6 1597.65,1451.41 1597.19,1451.41C1596.66,1451.41 1596.25,1451.65 1596.11,1451.89L1596.1,1451.89L1596.1,1450.48L1595.21,1450.48L1595.21,1454.3ZM1592.83,1440.14L1592.43,1440.1C1592.19,1440.29 1591.97,1440.6 1591.76,1441.02C1591.43,1442.04 1591.11,1442.86 1590.82,1443.48L1590.74,1443.48L1590.56,1443.02C1590,1441.04 1589,1440.05 1587.57,1440.05C1587.49,1440.05 1587.26,1440.2 1586.9,1440.51C1586.02,1441.59 1585.5,1442.15 1585.34,1442.18L1584.76,1441.95C1584.68,1441.95 1584.61,1442.04 1584.53,1442.23C1584.06,1442.41 1583.82,1442.53 1583.82,1442.6L1583.82,1442.88C1583.82,1443.43 1583.65,1443.71 1583.33,1443.71L1583.28,1444.45L1583.37,1447.56C1583.37,1448.17 1583.28,1448.77 1583.11,1449.37L1583.37,1449.69L1583.37,1449.92L1583.33,1450.16C1583.74,1450.47 1584.13,1450.62 1584.49,1450.62C1585.32,1450.62 1586.01,1449.6 1586.54,1447.56C1587.02,1445.76 1587.45,1444.65 1587.83,1444.22C1587.96,1444.22 1588.11,1445.18 1588.28,1447.1C1588.47,1449.51 1589.13,1450.71 1590.24,1450.71L1590.64,1450.71C1591.27,1450.71 1592.27,1448.67 1593.63,1444.59L1593.68,1444.59C1594.05,1445.25 1594.47,1446.45 1594.93,1448.21C1595.43,1449.85 1596.39,1450.67 1597.83,1450.67C1597.95,1450.67 1598.01,1450.59 1598.01,1450.43C1598.37,1450.12 1598.54,1449.9 1598.54,1449.79C1597.89,1448.21 1597.29,1446.56 1596.76,1444.82C1596.1,1442.71 1595.52,1441.21 1595.02,1440.33C1594.95,1440.07 1594.42,1439.86 1593.41,1439.68L1593.19,1439.68L1592.83,1440.14Z" style="fill:rgba(255, 255, 255, 0.5);"/>
    </g>
</svg>
